<?xml version="1.0" encoding="utf-8"?>
<!-- Generator: Adobe Illustrator 24.2.3, SVG Export Plug-In . SVG Version: 6.00 Build 0)  -->
<svg version="1.1" id="Capa_1" xmlns="http://www.w3.org/2000/svg" xmlns:xlink="http://www.w3.org/1999/xlink" x="0px" y="0px"
	 viewBox="0 0 841.89 595.28" style="enable-background:new 0 0 841.89 595.28;" xml:space="preserve">
<style type="text/css">
	.st0{fill:#6BB436;}
	.st1{fill:#E3ECD0;}
</style>
<g>
	<g>
		<path class="st0" d="M338.93,312.99v-67.38c0-1.36,0.68-2.03,2.03-2.03h28.83c4.91,0,9.27,1.03,13.07,3.08
			c3.8,2.05,6.75,4.92,8.87,8.59c2.12,3.68,3.18,7.89,3.18,12.64c0,4.54-0.93,8.43-2.8,11.67c-1.86,3.24-4.47,5.87-7.83,7.91
			l12.61,25.17c0.2,0.41,0.3,0.76,0.3,1.07c0,0.41-0.16,0.73-0.48,0.97c-0.32,0.24-0.75,0.36-1.3,0.36h-16.27
			c-1.12,0-1.92-0.51-2.39-1.53l-9.97-21.31c-0.51,0.03-1.24,0.05-2.19,0.05h-7.37v20.75c0,1.36-0.68,2.03-2.03,2.03h-14.24
			C339.61,315.03,338.93,314.35,338.93,312.99z M372.34,275.52c1.25-0.81,2.24-1.9,2.95-3.25c0.71-1.36,1.07-2.8,1.07-4.32
			c0-2.68-0.78-4.74-2.34-6.18c-1.56-1.44-3.48-2.16-5.75-2.16h-11.03v17.14h10.88C369.68,276.74,371.09,276.33,372.34,275.52z"/>
		<path class="st0" d="M419.96,312.76c-4.63-2.52-8.15-6.03-10.58-10.5c-2.42-4.47-3.64-9.56-3.64-15.26v-41.39
			c0-1.36,0.68-2.03,2.03-2.03h14.24c1.36,0,2.03,0.68,2.03,2.03v38.8c0,3.05,0.5,5.71,1.5,7.98c1,2.27,2.44,4.03,4.32,5.26
			c1.88,1.24,4.08,1.86,6.58,1.86c2.54,0,4.76-0.62,6.66-1.86c1.9-1.24,3.36-2.99,4.37-5.26c1.02-2.27,1.53-4.93,1.53-7.98v-38.8
			c0-1.36,0.68-2.03,2.03-2.03h14.24c1.36,0,2.03,0.68,2.03,2.03v41.39c0,5.7-1.22,10.78-3.66,15.26
			c-2.44,4.47-5.98,7.98-10.63,10.5c-4.64,2.52-10.17,3.79-16.58,3.79C430.09,316.55,424.59,315.29,419.96,312.76z"/>
		<path class="st0" d="M492.25,315.03h-14.39c-0.68,0-1.19-0.19-1.53-0.56c-0.34-0.37-0.48-0.9-0.41-1.58l8.7-67.43
			c0.07-0.61,0.3-1.08,0.69-1.4c0.39-0.32,0.89-0.48,1.5-0.48h16.83c1.19,0,1.93,0.58,2.24,1.73l12.31,44.39l12.26-44.39
			c0.3-1.15,1.05-1.73,2.24-1.73h16.88c0.61,0,1.11,0.16,1.5,0.48c0.39,0.32,0.62,0.79,0.69,1.4l8.75,67.48
			c0.07,0.68-0.07,1.2-0.41,1.58c-0.34,0.37-0.85,0.56-1.53,0.56h-14.44c-1.25,0-1.97-0.64-2.14-1.93l-4.27-40.17l-10.98,40.32
			c-0.3,1.15-1.05,1.73-2.24,1.73h-12.41c-1.19,0-1.93-0.58-2.24-1.73l-10.98-40.32l-4.47,40.12
			C494.21,314.38,493.5,315.03,492.25,315.03z"/>
		<path class="st0" d="M571.52,312.99v-67.38c0-1.36,0.68-2.03,2.03-2.03h27.56c4.78,0,8.98,0.81,12.61,2.42
			c3.63,1.61,6.43,3.9,8.42,6.87c1.98,2.97,2.97,6.4,2.97,10.3c0,1.93-0.36,3.83-1.07,5.7c-0.71,1.86-1.68,3.49-2.9,4.88
			c-1.22,1.39-2.56,2.39-4.02,3c2.17,0.75,4.11,1.99,5.82,3.74c1.71,1.75,3.04,3.8,3.99,6.15c0.95,2.36,1.42,4.82,1.42,7.4
			c0,4.17-1,7.84-3,11.01c-2,3.17-4.84,5.63-8.52,7.37c-3.68,1.75-7.94,2.62-12.79,2.62h-30.51
			C572.2,315.03,571.52,314.35,571.52,312.99z M604.73,269.54c1.32-1.2,1.98-2.69,1.98-4.45c0-1.73-0.62-3.12-1.86-4.17
			c-1.24-1.05-2.87-1.58-4.91-1.58h-10.12v12h9.66C601.66,271.35,603.4,270.75,604.73,269.54z M607.88,297.66
			c1.36-1.41,2.03-3.28,2.03-5.62c0-1.29-0.34-2.5-1.02-3.64c-0.68-1.14-1.64-2.04-2.87-2.72c-1.24-0.68-2.65-1.02-4.25-1.02h-11.95
			v15.1h12.61C604.71,299.77,606.52,299.07,607.88,297.66z"/>
		<path class="st0" d="M653.72,311.31c-5.68-3.32-10.15-7.81-13.42-13.48c-3.27-5.66-4.91-11.88-4.91-18.66
			c0-6.78,1.63-13,4.91-18.66c3.27-5.66,7.74-10.13,13.4-13.4c5.66-3.27,11.95-4.91,18.87-4.91c6.88,0,13.15,1.64,18.81,4.93
			c5.66,3.29,10.13,7.76,13.4,13.4c3.27,5.64,4.91,11.86,4.91,18.64c0,6.75-1.64,12.96-4.91,18.64c-3.27,5.68-7.75,10.18-13.42,13.5
			c-5.68,3.32-11.94,4.98-18.79,4.98C665.68,316.3,659.4,314.64,653.72,311.31z M681.76,296.19c2.85-1.71,5.12-4.07,6.81-7.07
			c1.69-3,2.54-6.3,2.54-9.89c0-3.59-0.86-6.88-2.57-9.86c-1.71-2.98-3.99-5.33-6.84-7.04c-2.85-1.71-5.9-2.57-9.15-2.57
			c-3.29,0-6.36,0.86-9.2,2.57c-2.85,1.71-5.13,4.06-6.84,7.04c-1.71,2.98-2.57,6.27-2.57,9.86c0,3.59,0.86,6.88,2.57,9.87
			c1.71,2.98,4,5.34,6.87,7.07c2.86,1.73,5.92,2.59,9.18,2.59C675.85,298.75,678.92,297.9,681.76,296.19z"/>
		<path class="st0" d="M365,457.67h-21.25c-2.1,0-3.15-1.05-3.15-3.15V350.26c0-2.1,1.05-3.15,3.15-3.15h24.32
			c1.68,0,2.94,0.68,3.78,2.05l37.69,60.44v-59.33c0-2.1,1.05-3.15,3.15-3.15h21.25c2.1,0,3.15,1.05,3.15,3.15v104.27
			c0,2.1-1.05,3.15-3.15,3.15H412.3c-1.63,0-2.89-0.68-3.78-2.05l-40.37-63.9v62.8C368.15,456.63,367.1,457.67,365,457.67z"/>
		<path class="st0" d="M484.3,457.67h-22.03c-2.1,0-3.15-1.05-3.15-3.15V350.26c0-2.1,1.05-3.15,3.15-3.15h22.03
			c2.1,0,3.15,1.05,3.15,3.15v104.27C487.45,456.63,486.4,457.67,484.3,457.67z"/>
		<path class="st0" d="M532.34,451.93c-8.79-5.14-15.71-12.09-20.77-20.85c-5.06-8.76-7.59-18.39-7.59-28.88
			c0-10.49,2.53-20.12,7.59-28.88c5.06-8.76,11.97-15.67,20.74-20.74c8.76-5.06,18.49-7.59,29.2-7.59c6.5,0,12.73,1,18.69,2.99
			c5.95,1.99,11.34,4.8,16.17,8.42c0.89,0.68,1.34,1.47,1.34,2.36c0,0.68-0.26,1.36-0.79,2.05l-12.75,16.68
			c-0.74,0.89-1.52,1.34-2.36,1.34c-0.68,0-1.37-0.24-2.05-0.71c-2.68-1.84-5.59-3.29-8.73-4.37c-3.15-1.08-6.32-1.61-9.52-1.61
			c-5.09,0-9.84,1.33-14.24,3.97c-4.41,2.65-7.94,6.28-10.59,10.9c-2.65,4.62-3.97,9.71-3.97,15.27c0,5.56,1.32,10.65,3.97,15.27
			c2.65,4.62,6.19,8.26,10.62,10.94c4.43,2.68,9.17,4.01,14.2,4.01c3.62,0,6.81-0.46,9.56-1.38c2.75-0.92,5.7-2.5,8.85-4.76
			c0.73-0.47,1.44-0.71,2.12-0.71c0.89,0,1.68,0.45,2.36,1.34l12.51,16.76c0.58,0.84,0.87,1.57,0.87,2.2c0,0.74-0.39,1.42-1.18,2.05
			c-4.88,3.73-10.31,6.6-16.29,8.62c-5.98,2.02-12.25,3.03-18.81,3.03C550.85,459.64,541.13,457.07,532.34,451.93z"/>
		<path class="st0" d="M711.72,455.39c0,0.74-0.24,1.3-0.71,1.69c-0.47,0.39-1.13,0.59-1.97,0.59h-22.66c-1.78,0-2.97-0.87-3.54-2.6
			l-5.04-14.72h-39.66l-5.04,14.72c-0.52,1.73-1.71,2.6-3.54,2.6h-22.59c-0.84,0-1.51-0.2-2.01-0.59c-0.5-0.39-0.75-0.96-0.75-1.69
			c0-0.42,0.08-0.87,0.24-1.34l40.29-104.58c0.63-1.68,1.84-2.52,3.62-2.52h19.44c1.78,0,2.99,0.84,3.62,2.52l40.06,104.58
			C711.64,454.53,711.72,454.97,711.72,455.39z M669.86,416.75l-10.55-31.01l-1.42-5.04l-1.18,5.04l-10.55,31.01H669.86z"/>
	</g>
</g>
<g>
	<g>
		<g>
			<path class="st0" d="M195.75,195.39c-12.43,0.15-24.92,1.85-36.73,5.8c-5.9,1.97-11.63,4.43-17.06,7.46
				c-5.41,3.04-10.53,6.6-15.26,10.6c-4.75,3.99-9.07,8.47-12.94,13.29c-3.88,4.81-7.35,9.96-10.32,15.38
				c-2.98,5.41-5.52,11.05-7.65,16.83c-2.11,5.79-3.79,11.73-5.08,17.75c-2.51,12.05-3.38,24.41-2.55,36.61
				c0.24,3.05,0.52,6.09,0.99,9.1c0.19,1.51,0.49,3,0.74,4.5c0.32,1.49,0.58,2.98,0.95,4.45c1.37,5.9,3.27,11.67,5.79,17.08
				c1.25,2.71,2.69,5.31,4.29,7.78c1.6,2.46,3.36,4.8,5.32,6.91L119,382.57l12.75,13.65l12.69,13.7l-0.29-0.29l14.97,13.49
				l7.48,6.75l7.45,6.78l14.89,13.57l14.85,13.61l-6.58-0.03c5.84-5.32,11.7-10.77,17.47-16.25c5.77-5.49,11.52-11,17.2-16.59
				c5.67-5.59,11.32-11.21,16.88-16.9c5.55-5.7,11.06-11.44,16.45-17.27c10.74-11.69,21.3-23.61,30.45-36.41
				c1.13-1.61,2.28-3.2,3.33-4.85c0.53-0.82,1.1-1.63,1.61-2.44c0.48-0.81,1-1.58,1.43-2.42c1.83-3.29,3.35-6.82,4.59-10.45
				c2.47-7.29,3.86-15.02,4.47-22.82c0.6-7.8,0.35-15.7-0.6-23.51c-0.95-7.82-2.63-15.57-5.06-23.09
				c-4.86-15.03-12.67-29.23-23.39-40.98c-2.69-2.92-5.51-5.73-8.53-8.33c-3.01-2.6-6.18-5.03-9.48-7.26
				c-3.32-2.21-6.75-4.24-10.29-6.09c-3.56-1.8-7.2-3.46-10.94-4.86c-3.75-1.38-7.54-2.65-11.41-3.63c-1.92-0.55-3.88-0.94-5.83-1.4
				c-0.98-0.21-1.96-0.38-2.94-0.57c-0.98-0.18-1.96-0.38-2.95-0.51C211.75,195.92,203.75,195.36,195.75,195.39z M195.75,195.39
				c8-0.06,16,0.47,23.91,1.68c0.99,0.13,1.97,0.33,2.96,0.5c0.98,0.19,1.97,0.34,2.95,0.54c1.95,0.44,3.92,0.8,5.85,1.33
				c3.89,0.94,7.71,2.17,11.48,3.5l2.81,1.07c0.94,0.35,1.85,0.77,2.77,1.15c0.93,0.38,1.85,0.77,2.75,1.21l2.72,1.28
				c3.59,1.79,7.08,3.77,10.47,5.93c3.36,2.19,6.6,4.57,9.72,7.11c3.12,2.54,6.05,5.3,8.85,8.19c2.8,2.89,5.42,5.96,7.89,9.15
				c2.46,3.2,4.77,6.51,6.87,9.96c4.19,6.9,7.73,14.22,10.47,21.84c1.37,3.81,2.6,7.67,3.64,11.59c1.03,3.92,1.87,7.9,2.53,11.9
				c1.31,8.02,1.91,16.17,1.63,24.35c-0.29,8.17-1.4,16.37-3.73,24.34c-1.18,3.98-2.67,7.91-4.57,11.69c-0.45,0.96-1,1.87-1.51,2.8
				c-0.52,0.9-1.05,1.76-1.59,2.64c-1.05,1.76-2.17,3.45-3.28,5.16c-4.49,6.79-9.33,13.28-14.33,19.63
				c-5,6.34-10.18,12.52-15.5,18.57c-5.3,6.06-10.72,12.01-16.23,17.86c-5.51,5.86-11.08,11.64-16.75,17.33
				c-5.67,5.69-11.37,11.35-17.18,16.89c-5.81,5.55-11.62,11.05-17.62,16.49l-3.31,2.99l-3.28-3.03l-14.79-13.67l-14.75-13.72
				l-7.37-6.87l-7.35-6.89l-14.68-13.8l-0.19-0.17l-0.1-0.12l-12.32-14.03l-12.27-14.08l-12.27-14.09
				c-4.37-5.07-7.67-10.84-10.15-16.82c-2.5-5.99-4.25-12.2-5.43-18.47c-0.33-1.56-0.54-3.15-0.8-4.72
				c-0.2-1.58-0.44-3.15-0.58-4.74c-0.36-3.16-0.52-6.33-0.64-9.5c-0.34-12.68,1.1-25.33,4.17-37.55
				c1.54-6.11,3.46-12.11,5.82-17.94c2.38-5.82,5.17-11.47,8.38-16.86c6.48-10.74,14.59-20.53,24.35-28.37
				c4.85-3.94,10.07-7.42,15.57-10.37c5.5-2.95,11.27-5.37,17.21-7.27c1.49-0.45,2.97-0.95,4.48-1.32c1.51-0.39,3-0.82,4.53-1.13
				c1.52-0.33,3.03-0.71,4.57-0.96c1.53-0.27,3.06-0.59,4.6-0.78C183.3,195.88,189.53,195.44,195.75,195.39z"/>
		</g>
	</g>
	<path class="st1" d="M196.96,237.86c-80.62,0.58-92.22,95.7-65.54,125.28c16.02,17.76,26.68,29.58,26.68,29.58l42.22,38.86
		c0,0,54.06-48.72,73.2-80.04C292.66,320.22,277.58,237.28,196.96,237.86z"/>
	<path class="st0" d="M220.94,322.53c-3.8,6.04-21.63,21.76-21.63,21.76s4.68,6.35,3.8,9.07c-0.4,1.24-2.68,2.73-5.38,3.7
		l3.28,32.58c1.87,1.7,6.78,6.48,6.52,9.53c-0.33,3.77-3.13,7.23-6.19,6.72c-3.06-0.5-4.29-4.14-4.29-4.14
		c-1.48-2.17,1.04-8.16,2.43-11.09l-3.34-33.11c-2.05,0.54-4.18,0.73-5.8,0.25l-2.23,26.29c1.76,2.37,4.99,7.18,4.27,9.86
		c-0.97,3.65-4.34,6.58-7.26,5.55c-2.92-1.02-3.51-4.82-3.51-4.82c-1.22-2.69,3.39-9.28,4.93-11.35l2.24-26.35c0,0,0,0,0,0
		c-3.51-3.02,0-13.3,0-13.3s-16.66-32.94-9.35-45.33c7.31-12.39,14.42-15.03,14.42-15.03s-17.64,0.17-21.44-1.47
		c-3.8-1.64-5.26-3.15-5.26-3.15s5.55-4.23,9.35-4.23s12.28-1.21,12.28-1.21s4.32-11.43,18.1-9.57c11.25,1.52,11.72,4.13,14.05,9.57
		C223.27,278.71,224.74,316.49,220.94,322.53z"/>
</g>
</svg>
