<?xml version="1.0" encoding="utf-8"?>
<!-- Generator: Adobe Illustrator 24.2.3, SVG Export Plug-In . SVG Version: 6.00 Build 0)  -->
<svg version="1.1" id="Capa_1" xmlns="http://www.w3.org/2000/svg" xmlns:xlink="http://www.w3.org/1999/xlink" x="0px" y="0px"
	 viewBox="0 0 841.89 595.28" style="enable-background:new 0 0 841.89 595.28;" xml:space="preserve">
<style type="text/css">
	.st0{fill:#6BB436;}
	.st1{fill:#E3ECD0;}
</style>
<g>
	<g>
		<g>
			<path class="st0" d="M420.48,281.64c-1.43,0.02-2.86,0.21-4.22,0.67c-0.68,0.23-1.34,0.51-1.96,0.86
				c-0.62,0.35-1.21,0.76-1.75,1.22c-0.55,0.46-1.04,0.97-1.49,1.53c-0.45,0.55-0.84,1.14-1.19,1.77c-0.34,0.62-0.63,1.27-0.88,1.93
				c-0.24,0.67-0.44,1.35-0.58,2.04c-0.29,1.38-0.39,2.8-0.29,4.2c0.03,0.35,0.06,0.7,0.11,1.04c0.02,0.17,0.06,0.34,0.09,0.52
				c0.04,0.17,0.07,0.34,0.11,0.51c0.16,0.68,0.38,1.34,0.67,1.96c0.14,0.31,0.31,0.61,0.49,0.89c0.18,0.28,0.39,0.55,0.61,0.79
				l1.46,1.57l1.46,1.57l1.46,1.57l-0.03-0.03l1.72,1.55l0.86,0.78l0.86,0.78l1.71,1.56l1.71,1.56l-0.76,0
				c0.67-0.61,1.34-1.24,2.01-1.87c0.66-0.63,1.32-1.26,1.98-1.91c0.65-0.64,1.3-1.29,1.94-1.94c0.64-0.65,1.27-1.31,1.89-1.98
				c1.23-1.34,2.45-2.71,3.5-4.18c0.13-0.18,0.26-0.37,0.38-0.56c0.06-0.09,0.13-0.19,0.18-0.28c0.05-0.09,0.11-0.18,0.16-0.28
				c0.21-0.38,0.38-0.78,0.53-1.2c0.28-0.84,0.44-1.72,0.51-2.62c0.07-0.9,0.04-1.8-0.07-2.7c-0.11-0.9-0.3-1.79-0.58-2.65
				c-0.56-1.73-1.45-3.36-2.69-4.71c-0.31-0.34-0.63-0.66-0.98-0.96c-0.35-0.3-0.71-0.58-1.09-0.83c-0.38-0.25-0.78-0.49-1.18-0.7
				c-0.41-0.21-0.83-0.4-1.26-0.56c-0.43-0.16-0.87-0.3-1.31-0.42c-0.22-0.06-0.45-0.11-0.67-0.16c-0.11-0.02-0.23-0.04-0.34-0.07
				c-0.11-0.02-0.23-0.04-0.34-0.06C422.32,281.7,421.4,281.63,420.48,281.64z M420.48,281.64c0.92-0.01,1.84,0.05,2.75,0.19
				c0.11,0.01,0.23,0.04,0.34,0.06c0.11,0.02,0.23,0.04,0.34,0.06c0.22,0.05,0.45,0.09,0.67,0.15c0.45,0.11,0.89,0.25,1.32,0.4
				l0.32,0.12c0.11,0.04,0.21,0.09,0.32,0.13c0.11,0.04,0.21,0.09,0.32,0.14l0.31,0.15c0.41,0.21,0.81,0.43,1.2,0.68
				c0.39,0.25,0.76,0.53,1.12,0.82c0.36,0.29,0.69,0.61,1.02,0.94c0.32,0.33,0.62,0.68,0.91,1.05c0.28,0.37,0.55,0.75,0.79,1.14
				c0.48,0.79,0.89,1.63,1.2,2.51c0.16,0.44,0.3,0.88,0.42,1.33c0.12,0.45,0.21,0.91,0.29,1.37c0.15,0.92,0.22,1.86,0.19,2.8
				c-0.03,0.94-0.16,1.88-0.43,2.8c-0.14,0.46-0.31,0.91-0.52,1.34c-0.05,0.11-0.11,0.21-0.17,0.32c-0.06,0.1-0.12,0.2-0.18,0.3
				c-0.12,0.2-0.25,0.4-0.38,0.59c-0.52,0.78-1.07,1.53-1.65,2.25c-0.57,0.73-1.17,1.44-1.78,2.13c-0.61,0.7-1.23,1.38-1.86,2.05
				c-0.63,0.67-1.27,1.34-1.92,1.99c-0.65,0.65-1.31,1.3-1.97,1.94c-0.67,0.64-1.33,1.27-2.02,1.89l-0.38,0.34l-0.38-0.35l-1.7-1.57
				l-1.69-1.58l-0.85-0.79l-0.84-0.79l-1.69-1.58l-0.02-0.02l-0.01-0.01l-1.42-1.61l-1.41-1.62l-1.41-1.62
				c-0.5-0.58-0.88-1.24-1.17-1.93c-0.29-0.69-0.49-1.4-0.62-2.12c-0.04-0.18-0.06-0.36-0.09-0.54c-0.02-0.18-0.05-0.36-0.07-0.54
				c-0.04-0.36-0.06-0.73-0.07-1.09c-0.04-1.46,0.13-2.91,0.48-4.31c0.18-0.7,0.4-1.39,0.67-2.06c0.27-0.67,0.59-1.32,0.96-1.94
				c0.74-1.23,1.68-2.36,2.8-3.26c0.56-0.45,1.16-0.85,1.79-1.19c0.63-0.34,1.29-0.62,1.98-0.83c0.17-0.05,0.34-0.11,0.51-0.15
				c0.17-0.05,0.35-0.09,0.52-0.13c0.17-0.04,0.35-0.08,0.52-0.11c0.18-0.03,0.35-0.07,0.53-0.09
				C419.06,281.69,419.77,281.64,420.48,281.64z"/>
		</g>
	</g>
	<path class="st1" d="M420.62,286.51c-9.26,0.07-10.59,10.99-7.53,14.39c1.84,2.04,3.06,3.4,3.06,3.4l4.85,4.46
		c0,0,6.21-5.6,8.41-9.19C431.61,295.97,429.88,286.45,420.62,286.51z"/>
	<path class="st0" d="M423.38,296.24c-0.44,0.69-2.48,2.5-2.48,2.5s0.54,0.73,0.44,1.04c-0.05,0.14-0.31,0.31-0.62,0.42l0.38,3.74
		c0.21,0.2,0.78,0.74,0.75,1.09c-0.04,0.43-0.36,0.83-0.71,0.77c-0.35-0.06-0.49-0.48-0.49-0.48c-0.17-0.25,0.12-0.94,0.28-1.27
		l-0.38-3.8c-0.24,0.06-0.48,0.08-0.67,0.03l-0.26,3.02c0.2,0.27,0.57,0.82,0.49,1.13c-0.11,0.42-0.5,0.76-0.83,0.64
		c-0.34-0.12-0.4-0.55-0.4-0.55c-0.14-0.31,0.39-1.07,0.57-1.3l0.26-3.03c0,0,0,0,0,0c-0.4-0.35,0-1.53,0-1.53s-1.91-3.78-1.07-5.21
		c0.84-1.42,1.66-1.73,1.66-1.73s-2.03,0.02-2.46-0.17c-0.44-0.19-0.6-0.36-0.6-0.36s0.64-0.49,1.07-0.49s1.41-0.14,1.41-0.14
		s0.5-1.31,2.08-1.1c1.29,0.17,1.35,0.47,1.61,1.1C423.65,291.21,423.81,295.54,423.38,296.24z"/>
</g>
</svg>
